<svg xmlns="http://www.w3.org/2000/svg" viewBox="0 0 722 230.5"><defs><style>.cls-1{stroke:#000;stroke-miterlimit:10;}.cls-11,.cls-2{font-size:16px;}.cls-2{font-family:MyriadPro-Regular, Myriad Pro;}.cls-3{letter-spacing:-0.1em;}.cls-4{letter-spacing:-0.09em;}.cls-5{letter-spacing:-0.01em;}.cls-6{letter-spacing:-0.01em;}.cls-7{letter-spacing:-0.03em;}.cls-8{letter-spacing:0em;}.cls-9{letter-spacing:0em;}.cls-10{letter-spacing:0em;}.cls-11,.cls-12{font-family:MicrosoftJhengHeiBold, Microsoft JhengHei;}.cls-12{font-size:28px;}</style></defs><title>資產 2</title><g id="圖層_2" data-name="圖層 2"><g id="圖層_1-2" data-name="圖層 1"><g id="圖層_2-2" data-name="圖層 2"><g id="圖層_1-2-2" data-name="圖層 1-2"><path d="M615.46,146.34c5.17,0,10.35-.2,15.49.12,1.47.1,4.1,1.84,4,2.61-.25,2.46-.69,5.24-4.58,5.24-21.61,0-42.81-2.53-63.44-9.36-15.57-5.15-29.21-13.57-42-23.51a24.79,24.79,0,0,1-4.65-5.16c-3-4.16-4.64-4.34-8.08-.46-3.75,4.23-7.22,8.75-11.22,12.74-20.84,20.81-46.44,29.62-75.5,29.7-9.19,0-18.34.17-27.08-3.36-4-1.63-7.42-3.8-8.7-8.26-.91-3.22-3.18-4-6.2-3.42-1.79.36-3.57.81-5.37,1.15-3.9.75-7.06-.58-8.83-4.06s-.92-6.81,1.81-9.61c3.26-3.34,6.74-6.49,9.67-10.1,1.1-1.36.9-3.76,1.3-5.68-1.91.37-4.42.1-5.64,1.22-7.58,7-15.08,14.12-22.18,21.6-5.34,5.63-12,7.41-19.19,8.16-4.83.5-8.36-1.55-9.92-6.5-.35-1.1-1.35-2.59-2.25-2.75s-2.1,1.15-2.84,2.08c-4.25,5.34-17.2,9.83-23.18,7.14-4.86-2.18-9.26-1.65-14.05-.51A43.71,43.71,0,0,1,272,146.72c-4-.06-6.24-2.59-6.54-6.76-.43-6.1,1.21-11.39,6.41-14.85,5.52-3.67,11.48-6.7,17-10.38,2.09-1.39,3.48-3.82,5.19-5.77a51.17,51.17,0,0,0-7.79-.87,110.58,110.58,0,0,0-13.85,1.18c-2.22.35-4.93,1.16-6.32,2.74a168,168,0,0,1-43.43,35.71c-23.8,13.49-49.4,19.32-76.8,16.61-3.3-.33-3.71-2.16-3.39-4.8.34-2.92,1.14-4.74,4.88-4.74,10.65,0,21.34,0,31.93-1,25.48-2.24,45-15.41,60.62-34.87,13.26-16.47,26.12-33.27,39.54-49.61,5.59-6.8,12.3-12.67,18.23-19.2,1.89-2.08,2.92-4.93,4.35-7.43-2.8-1.57-5.51-4.26-8.42-4.52-10.6-.93-21.27-1.49-31.91-1.39A119.19,119.19,0,0,0,218,45.89c-15.24,6.18-27.73,16-34.75,31.35a44.74,44.74,0,0,0-3.67,13.37c-1.14,10,5,17.63,15.1,19.42,21,3.72,49.45-12.21,57.09-32.13a19.48,19.48,0,0,0,1.38-6.78c0-4.73-2.61-8-7.2-9-8-1.66-15.58-.67-22,5-.5.45-.91,1.23-1.46,1.33-1.63.3-3.32.33-5,.47.27-1.53,0-3.62.91-4.47,3.12-3,6.3-6.19,10.08-8,7.24-3.5,15.35-4.33,22.75-1.24,10.23,4.26,13.45,16.11,7.76,26.27-10.65,19-26.53,31.4-48.27,34.2-11.71,1.51-24,2.3-35.09-4.28-6.42-3.83-10.06-9-10.51-16.9-.63-12.23,4-21.61,12.3-30.31,15.87-16.57,35.59-25.7,57.39-30.45,17.94-3.91,36.28-5.35,54.63-3.18,5.23.62,10.35,2.5,15.39,4.2s9.26,1,13.88-2.3a82.58,82.58,0,0,1,47-16,22.09,22.09,0,0,1,10,2.49c5.2,2.59,9.85,2.65,15.26.37,10.49-4.41,21.19-4,32.26-1.08,20.25,5.4,36.79,17,52.12,30.41C485.86,57.84,495.6,68,505.36,78c6.77,6.93,8.16,7,16.56,2.62a33.44,33.44,0,0,1,14.17-3.32c5.91-.17,10.47,3.22,12.7,8.89,2.39,6,1.67,11.81-2.6,16.81a54.56,54.56,0,0,1-7.33,6.76c-4.65,3.8-4.9,7.41.21,10.75,7.23,4.74,14.55,9.53,22.36,13.17C578.46,141.65,596.32,147,615.46,146.34ZM404.7,142.79c-1.5,5.54,1.55,7.44,5.28,7.46,11.78.07,23.68.59,35.32-.81,21.7-2.61,38.44-13.8,50.17-32.4,5.54-8.78,5.3-17.61.72-26.52-6.78-13.21-16.94-23.78-27-34.47-11.26-12-23.08-23.17-38.76-29.14C419.28,22.66,407.57,19,396,24c-7.86,3.4-14.36,3.33-22.71,1.38-16.58-3.86-32.72-.36-47,9.61-5.24,3.66-5.49,6.26-.91,10.71,13,12.64,13.72,29.72,1,42.57-5.3,5.34-12,9.33-18.21,13.7-4.6,3.23-4.79,5-1.08,9s6.89,2.47,10.73.59c1.42-.69,4.41-.49,5.2.49s.57,3.74-.1,5.36-2.44,3.11-3.76,4.6c-2.42,2.75-5,5.36-7.23,8.26a3.94,3.94,0,0,0,0,3.54c.3.6,2.36,1,3,.61,7.87-5.43,16.65-10,20-20,.49-1.49,2.07-3.66,3.22-3.71,5.75-.24,8.74-4.34,12.26-7.82,5.9-5.85,11.7-11.84,18-17.29,1.51-1.32,4.63-.78,7-1.09-.52,2.32-.38,5.15-1.69,6.88-2.89,3.83-6.7,7-9.78,10.66-2.81,3.39-2.1,6.19,1.7,8.79,3.36,2.29,5.82,1.26,7.91-2a24.94,24.94,0,0,1,4.48-5.84c3.67-3.1,6.92-2,9.11,2.28a11.15,11.15,0,0,0,4.08,4.61c6.72,3.74,7.34,7,2,12.64-.92,1-2.18,1.72-2.79,2.84a62.1,62.1,0,0,0-2.75,6.39c2.18-.58,4.8-.57,6.48-1.82,7.35-5.45,14.29-11.46,21.68-16.87a33.86,33.86,0,0,1,10.27-4.85c1.65-.49,4.76.38,5.56,1.66s.07,4.27-1,5.72c-2.39,3.16-5.69,5.63-8.14,8.76-1.74,2.24-5.66,4.45-2.74,7.78.61.7,5.35-1.16,7.31-2.86,10.22-8.85,20.4-17.62,33.28-22.57,5.54-2.12,11-1,14.09,3.69,2.16,3.26,1.89,6.92-1.1,8.91-2,1.33-6.18,1.81-7.95.58-5.55-3.84-5.32-4.26-10.11.82-1.94,2-4.15,4-5.41,6.48-1.09,2.1-1,4.8-1.45,7.23,2.57.46,5.78,2.13,7.6,1.17,5.92-3.12,11.27-7.31,17-10.83,1.43-.87,3.47-.75,5.22-1.09-.61,1.61-.74,3.86-1.91,4.72-5.61,4.16-11.51,7.91-17.27,11.86-8.27,5.67-18.27,4.9-25.26-2.33-2.63-2.72-5.42-3.12-7.92-.94C419.81,142.3,412.92,144.19,404.7,142.79ZM321.3,63.08c-.19-1.82.13-3.91-.67-5.41-1.77-3.37-3.42-7.86-6.37-9.3-3.91-1.9-6.2,2.82-8.16,5.73Q293,73.52,280.27,93.2c-1,1.6-1.91,4.78-1.1,5.71,1.22,1.42,4.34,2.57,6,2,6.35-2.22,13.19-4.17,18.45-8.08C313.39,85.56,321.37,76.53,321.3,63.08Zm-17,58.51c0-3.5-3.6-5-6.51-2.71-5.76,4.44-11.26,9.23-16.56,14.2-1.05,1-.73,3.43-1,5.2,1.85,0,4.24.82,5.45,0,5.4-3.84,10.54-8.06,15.59-12.35,1.41-1.26,2.25-3.2,3-4.34Zm52.57-5.9c-1.61.7-3,.88-3.65,1.66-4,4.83-8,9.7-11.66,14.79-.73,1-.09,3-.07,4.52,1.54-.12,3.58.35,4.54-.46,5-4.25,9.84-8.73,14.48-13.37a4.19,4.19,0,0,0,.25-4c-.83-1.4-2.61-2.19-3.88-3.14Zm180.38-21.2c-.27-.51-.64-2.25-1.65-2.82s-3.35-.59-4,.14A93.16,93.16,0,0,0,522,103.67c-1.48,2.29,0,4.19,3,3.81C529.68,106.89,536.62,100,537.25,94.49Zm-133,32.5c-3,2.6-5.21,4.09-6.89,6-1.35,1.55-3.39,4.43-2.85,5.3,1.12,1.79,3.76,2.63,5.56,3.73C401.56,136.71,402.7,132.6,404.27,127Z"/><path d="M432.26,92.11c-.44,3.26-2.5,5.27-6.29,5-4.14-.29-5.64-3-5.58-6.82.06-3.55,2.35-4.93,5.57-5a6.39,6.39,0,0,1,6.31,6.46C432.27,91.87,432.26,92,432.26,92.11Z"/></g></g><path class="cls-1" d="M361,.5C161.9.5.5,51.88.5,115.25S161.9,230,361,230s360.5-51.38,360.5-114.75S560.1.5,361,.5Zm0,214.68c-173.14,0-313.5-44.74-313.5-99.93S187.86,15.32,361,15.32s313.5,44.74,313.5,99.93S534.14,215.18,361,215.18Z"/><text class="cls-2" transform="translate(312.89 179.15)"><tspan class="cls-3">L</tspan><tspan class="cls-4" x="5.9" y="0">’</tspan><tspan class="cls-5" x="7.78" y="0">A</tspan><tspan class="cls-6" x="17.41" y="0">t</tspan><tspan x="22.61" y="0">elier de </tspan><tspan class="cls-7" x="75.21" y="0">P</tspan><tspan class="cls-8" x="83.31" y="0">a</tspan><tspan x="90.96" y="0">t</tspan><tspan class="cls-9" x="96.25" y="0">r</tspan><tspan class="cls-10" x="101.55" y="0">ick</tspan></text><text class="cls-11" transform="translate(401.01 193.82)">法式</text><text class="cls-12" transform="translate(440.15 190.68)">派翠克</text></g></g></svg>